<?xml version="1.0" encoding="UTF-8"?>
<svg id="Capa_1" data-name="Capa 1" xmlns="http://www.w3.org/2000/svg" viewBox="0 0 595.28 841.89">
  <defs>
    <style>
      .cls-1 {
        fill: #fff;
      }
    </style>
  </defs>
  <g>
    <path class="cls-1" d="M105.81,290.16c-24.01-15.04-38.76-40.49-38.76-69.71,0-46.56,40.5-84.17,87.06-84.17h35.29c51.77,0,92.85,43.67,92.85,105,0,65.37-41.07,107.59-92.85,107.59-37.02,0-68.84-21.98-83.59-58.72Zm-8.97-48.88c0-54.09,31.82-94.59,75.2-103.27h-17.93c-45.7,0-85.32,37.02-85.32,82.44,0,27.48,13.59,51.78,35.86,66.82-5.2-13.6-7.81-28.93-7.81-45.99Zm154.17,.29c0-42.81-7.81-103.26-61.61-103.26s-61.61,65.37-61.61,103.26c0,17.64,1.45,38.76,6.65,57.27,53.8,14.47,107.89-22.84,107.89-78.38,0-21.11-7.81-40.49-21.11-54.95l1.73-.87c13.02,14.75,21.12,34.42,21.12,55.82,0,55.83-52.64,93.71-109.05,80.41,8.39,25.46,24.01,45.99,54.38,45.99,52.06,0,61.61-59.87,61.61-105.28Z"/>
    <path class="cls-1" d="M306.56,160.3c0-58.72,37.89-87.06,86.77-87.06s84.17,37.6,84.17,83.3-31.82,74.62-73.76,77.51l-35.87,37.02,59.01,74.34h-34.71l-42.52-54.67-14.75,15.04v39.63h-28.35V160.3Zm89.95,72.31c44.54,0,79.25-28.93,79.25-76.07,0-44.55-36.74-81.57-82.44-81.57-49.17,0-58.43,45.99-58.43,73.76v153.88l61.61-69.99Z"/>
    <path class="cls-1" d="M430.09,186.62c0-8.97,7.23-16.49,16.49-16.49s16.2,7.52,16.2,16.49-7.23,16.49-16.2,16.49-16.49-7.52-16.49-16.49Zm2.31,45.99h28.35v112.8h-28.35v-112.8Z"/>
    <path class="cls-1" d="M302.07,473.85v-76.65c0-21.4-4.92-36.73-21.12-36.73-20.53,0-32.97,23.14-32.97,35.58v77.8h-28.35v-112.8h28.35v25.74c3.76-13.6,15.33-29.21,39.34-29.21,28.92,0,43.1,19.67,43.1,44.84v82.72c0,27.76,7.52,73.87,56.69,73.75,47.54-.11,72.97-40.79,71-81.28-.99-20.49-8.59-54.91-8.59-54.91l-.6-3.44s12.13,36.24,12.13,58.35c0,46.56-27.38,83.01-73.95,83.01-48.88,0-85.04-28.05-85.04-86.77Z"/>
    <path class="cls-1" d="M445.72,446.37c-12.73,24.58-32.11,30.66-43.96,30.66-32.4,0-51.2-10.12-51.2-33.84,0-30.66,42.81-37.89,74.62-37.89h7.23v-8.97c0-20.54-2.6-37.02-24.3-37.02-20.53,0-42.52,11.86-42.52,38.76,0,2.31,0,3.47,.29,5.2l-2.03,.29c-.29-1.73-.29-2.89-.29-5.49,0-27.77,22.27-40.79,44.54-40.79,34.71,0,52.93,14.75,52.93,44.84v75.48h-2.03l-13.31-31.23Zm-13.3-14.17v-24.88c-30.37,1.74-51.77,9.83-51.77,35.87,0,13.6,2.03,31.82,21.12,31.82,25.16,0,30.66-26.03,30.66-42.81Z"/>
    <path class="cls-1" d="M290.66,569.85m-41.8,18.02,.87,2.03,54.67-19.09-31.02,80.95l34.05-82.68h3.92l-47.44,113.96h-7.52l-30.95-80.99-30.37,80.99h-6.94l-45.7-113.96c-13.88-33.85-26.61-67.97-64.79-67.97-30.08,0-51.2,12.44-61.9,31.24l-2.03-1.16c11.28-19.09,32.97-32.1,63.92-32.1,49.75,0,81.85,34.42,95.74,70l31.82,83.87,27.77-85.04h8.39l32.03,83.84Z"/>
    <path class="cls-1" d="M397.26,657c-2.89,19.09-19.09,28.35-30.66,28.35-32.4,0-51.2-10.12-51.2-33.84,0-30.66,42.81-37.89,74.62-37.89h7.23v-8.97c0-20.54-2.6-37.02-24.3-37.02-20.53,0-42.52,11.86-42.52,38.76,0,2.31,0,3.47,.29,5.2l-2.03,.29c-.29-1.73-.29-2.89-.29-5.49,0-27.77,22.27-40.79,44.54-40.79,34.71,0,52.93,14.75,52.93,44.84v52.06c0,55.82,13.3,103.84,70.57,103.84,45.7,0,82.44-36.73,82.44-82.14s-37.02-82.43-82.44-82.43c-22.85,0-43.39,9.25-58.43,24.29l-1.16-1.16c15.04-15.33,36.15-24.87,59.58-24.87,46.57,0,84.17,37.6,84.17,84.17s-37.6,84.17-84.17,84.17c-65.37,0-99.21-54.67-99.21-111.36Zm0-16.49v-24.88c-30.37,1.74-51.77,9.83-51.77,35.87,0,13.6,2.03,31.82,21.12,31.82,25.16,0,30.66-26.61,30.66-42.81Z"/>
  </g>
  <g>
    <path class="cls-1" d="M519.65,136.29h35.28v.81l-27.93-.37v20.51l17.41-.25v.68h-17.41v22.37l28.83-.37v.81h-36.18v-44.19Z"/>
    <path class="cls-1" d="M518,229.23c0-.37,0-.81,.07-1.18l.53,.06c-.08,.37-.08,.75-.08,1.12,0,7.52,5.93,13.73,16.97,13.73,8.49,0,14.04-3.54,14.04-8.95,0-4.29-2.93-6.34-9.98-9.45l-6.83-2.98c-9.61-4.23-12.62-7.52-12.62-12.55,0-6.9,6.38-11.31,15.24-11.31,10.51,0,15.24,5.41,15.24,13.11,0,.37,0,.81-.07,1.18l-.52-.06c.07-.37,.07-.74,.07-1.12,0-7.52-4.66-12.68-14.71-12.68-7.28,0-12.09,3.61-12.09,7.83,0,3.86,2.78,5.6,12.02,9.76l5.93,2.61c9.76,4.35,11.79,8.33,11.79,12.99,0,7.08-6.83,12.06-17.49,12.06-11.49,0-17.49-6.46-17.49-14.17Z"/>
    <path class="cls-1" d="M532.1,261.08l-16.14,.37v-.81h39.79v.81l-16.29-.37v43.75h-7.36v-43.75Z"/>
    <path class="cls-1" d="M516.68,353.4v-30.57h7.36v32.31c0,1.06,.15,1.99,.3,2.92,1.2,6.34,6.61,8.95,13.51,8.95,8.19,0,14.34-2.92,15.39-11.19,.15-.93,.15-1.93,.15-3.05l.75-29.95h.53l.37,30.7c.15,9.94-6.91,13.92-17.19,13.92-12.61,0-21.17-3.91-21.17-14.05Z"/>
    <path class="cls-1" d="M514.31,385.01h20.72c13.66,0,24.02,8.64,24.02,21.81,0,14.05-10.58,22.37-24.02,22.37h-20.72v-44.19Zm20.72,43.56c13.44-.25,15.99-11.93,15.99-21.69,0-9.2-2.11-21.01-15.99-21.26l-13.36-.19v43.32l13.36-.19Z"/>
    <path class="cls-1" d="M532.19,447.19h7.36v44.19h-7.36v-44.19Z"/>
    <path class="cls-1" d="M511.83,531.18c0-13.17,10.66-22.56,24.02-22.56s24.1,9.38,24.1,22.56c0,14.05-10.66,23.12-24.1,23.12s-24.02-9.08-24.02-23.12Zm40.01,.06c0-9.2-2.02-22.19-15.99-22.19s-15.99,14.05-15.99,22.19c0,9.2,2.25,22.62,15.99,22.62s15.99-12.86,15.99-22.62Z"/>
  </g>
</svg>